HIERARCHY
ROOT Hips
{
	OFFSET 0.000000 88.474243 0.000000
	CHANNELS 6 Xposition Yposition Zposition Zrotation Yrotation Xrotation 
	JOINT Hips_Spine
	{
		OFFSET 0.000000 0.000000 0.000000
		CHANNELS 3 Zrotation Yrotation Xrotation
		JOINT Spine
		{
			OFFSET 0.005100 8.711998 -0.691000
			CHANNELS 3 Zrotation Yrotation Xrotation
			JOINT Spine1
			{
				OFFSET -0.009200 8.660301 -1.275000
				CHANNELS 3 Zrotation Yrotation Xrotation
				JOINT Spine2
				{
					OFFSET 0.006300 9.852501 -1.857000
					CHANNELS 3 Zrotation Yrotation Xrotation
					JOINT Spine2_Neck
					{
						OFFSET 0.000000 0.000000 0.000000
						CHANNELS 3 Zrotation Yrotation Xrotation
						JOINT Neck
						{
							OFFSET 0.016300 11.420799 -0.263300
							CHANNELS 3 Zrotation Yrotation Xrotation
							End Site #name: Head
							{
								OFFSET -0.019200 9.262405 2.362500
							}
						}
					}
					JOINT Spine2_LeftShoulder
					{
						OFFSET 0.000000 0.000000 0.000000
						CHANNELS 3 Zrotation Yrotation Xrotation
						JOINT LeftShoulder
						{
							OFFSET 5.616900 6.732201 -0.345700
							CHANNELS 3 Zrotation Yrotation Xrotation
							JOINT LeftArm
							{
								OFFSET 10.664888 -0.183372 -2.440700
								CHANNELS 3 Zrotation Yrotation Xrotation
								JOINT LeftForeArm
								{
									OFFSET 27.459126 0.000000 0.000000
									CHANNELS 3 Zrotation Yrotation Xrotation
									End Site #name: LeftHand
									{
										OFFSET 21.306858 0.000000 0.000000
									}
								}
							}
						}
					}
					JOINT Spine2_RightShoulder
					{
						OFFSET 0.000000 0.000000 0.000000
						CHANNELS 3 Zrotation Yrotation Xrotation
						JOINT RightShoulder
						{
							OFFSET -5.580300 6.737503 -0.344400
							CHANNELS 3 Zrotation Yrotation Xrotation
							JOINT RightArm
							{
								OFFSET -10.679335 -0.188484 -2.383900
								CHANNELS 3 Zrotation Yrotation Xrotation
								JOINT RightForeArm
								{
									OFFSET -27.503529 0.000000 0.000000
									CHANNELS 3 Zrotation Yrotation Xrotation
									End Site #name: RightHand
									{
										OFFSET -21.306808 0.000000 0.000000
									}
								}
							}
						}
					}
				}
			}
		}
	}
	JOINT Hips_LeftUpLeg
	{
		OFFSET 0.000000 0.000000 0.000000
		CHANNELS 3 Zrotation Yrotation Xrotation
		JOINT LeftUpLeg
		{
			OFFSET 6.857700 -6.739601 0.312100
			CHANNELS 3 Zrotation Yrotation Xrotation
			JOINT LeftLeg
			{
				OFFSET -0.367590 -34.731552 -4.572400
				CHANNELS 3 Zrotation Yrotation Xrotation
				End Site #name: LeftFoot
				{
					OFFSET 0.367590 -34.656704 -6.067400
				}
			}
		}
	}
	JOINT Hips_RightUpLeg
	{
		OFFSET 0.000000 0.000000 0.000000
		CHANNELS 3 Zrotation Yrotation Xrotation
		JOINT RightUpLeg
		{
			OFFSET -6.876100 -6.733299 0.301000
			CHANNELS 3 Zrotation Yrotation Xrotation
			JOINT RightLeg
			{
				OFFSET 0.347353 -34.795158 -4.515900
				CHANNELS 3 Zrotation Yrotation Xrotation
				End Site #name: RightFoot
				{
					OFFSET -0.347353 -34.589367 -6.070300
				}
			}
		}
	}
}
MOTION
Frames: 18
Frame Time: 0.041667
0.042173 -0.031377 -0.069845 -176.318429 56.987542 -173.367043 -0.000000 -0.000000 0.000000 -3.302728 1.106647 -1.157059 1.328845 -0.356008 1.749572 0.000000 0.000000 0.000000 0.790521 -1.047790 -1.790759 -1.569013 -7.044960 -2.200032 0.718023 -0.184691 -0.319669 -3.794273 -7.741994 1.617445 -77.212440 -5.608650 8.273012 0.607698 -20.172392 2.361115 0.486522 -0.715665 0.052709 17.241259 12.146240 3.212237 52.867795 11.090708 -7.818880 -4.895627 63.251975 0.665197 0.000000 -0.000000 0.000000 -4.501234 16.869206 -13.959739 -5.759898 -31.849816 -0.617569 0.000000 -0.000000 -0.000000 -6.471512 -24.380980 -10.502963 -12.609779 -8.177195 17.443308 
0.024678 -0.170250 -0.101090 -176.890690 66.535585 -172.873553 -0.000000 -0.000000 0.000000 -5.413939 -0.161401 1.873015 1.870952 -0.594664 0.614561 0.000000 0.000000 0.000000 1.493603 -0.780654 -1.203374 -0.505938 -13.146417 -1.180962 1.117163 -0.357195 -0.791245 -2.031162 -9.562303 1.653661 -82.667656 -13.427951 3.705214 -1.058306 -16.690903 1.947671 1.644644 -1.064550 0.965636 21.355366 12.997135 3.474324 52.311534 13.376018 -6.720146 -2.310157 46.666414 3.185899 0.000000 -0.000000 -0.000000 -3.006032 17.832901 -12.158867 -3.791592 -30.351584 -4.757200 0.000000 -0.000000 -0.000000 -6.229645 -25.743340 -10.051227 -9.215001 -3.834290 16.928489 
0.005613 -0.250010 -0.146013 -178.491015 57.741077 -174.712204 -0.000000 -0.000000 0.000000 -6.400850 -2.282309 2.024016 2.246081 -0.835415 0.577481 0.000000 0.000000 0.000000 2.187121 -1.024127 -1.041360 -1.424214 -20.389764 -1.016953 1.413292 -0.393938 -1.160676 -0.815369 -8.853110 0.988778 -83.912615 -14.475924 -1.711620 -0.708035 -10.390581 2.103350 2.286401 -1.373028 0.705212 22.151097 14.673895 4.086701 51.527844 17.863393 -2.262887 0.126085 43.957148 7.484883 0.000000 -0.000000 -0.000000 -1.918230 18.824973 -10.759455 -3.163159 -30.153566 -5.363438 -0.000000 -0.000000 -0.000000 -6.109653 -29.898248 -8.433776 -8.079533 -2.408811 17.265105 
0.083444 -0.316493 -0.197543 -178.218260 47.735550 -175.468604 -0.000000 -0.000000 0.000000 -6.236681 -3.389039 2.808369 2.173244 -1.184023 0.576833 0.000000 0.000000 0.000000 2.376284 -1.366920 -0.579254 -2.261845 -24.383365 -0.480521 1.456234 -0.616886 -1.353916 -0.523997 -8.263328 0.584914 -85.199827 -15.835817 -2.671476 -0.540936 -7.242528 2.109170 2.389967 -1.850273 0.673583 20.857488 13.894009 3.974154 51.784932 21.025070 -0.511729 4.391062 44.546551 10.533672 0.000000 0.000000 -0.000000 -1.426938 19.127940 -9.500323 -2.702690 -31.076847 -6.059182 -0.000000 -0.000000 -0.000000 -6.069993 -35.784863 -7.509122 -7.883899 -1.215998 17.570599 
0.207243 -0.353743 -0.273367 -178.545355 40.323716 -176.255985 -0.000000 -0.000000 0.000000 -5.368677 -3.900553 2.993359 2.009887 -1.377668 0.693435 0.000000 0.000000 0.000000 2.397603 -1.605632 0.285510 -2.664767 -26.225499 0.378593 1.334453 -0.851185 -1.121513 -0.541401 -8.013952 0.390037 -85.496401 -16.686532 -2.250208 -0.268414 -6.162441 2.537367 2.194567 -2.218765 0.803826 19.052564 12.845389 3.677054 52.086824 23.107809 0.052169 5.609230 43.759425 10.944396 -0.000000 0.000000 -0.000000 -1.112725 19.356309 -8.786487 -2.426847 -32.049338 -6.603242 -0.000000 -0.000000 -0.000000 -6.245037 -40.884197 -6.905484 -8.650237 -0.834257 17.773341 
0.343216 -0.380448 -0.368319 -179.160450 36.752371 -176.598242 -0.000000 -0.000000 0.000000 -4.330628 -3.904279 3.387887 1.794055 -1.513862 1.097051 0.000000 0.000000 0.000000 2.250012 -1.707333 1.371433 -2.687869 -26.982867 0.874631 1.112558 -1.044942 -0.542748 -0.646554 -7.461414 0.148313 -85.464708 -16.819338 -1.021923 1.221708 -6.730908 4.435325 1.905501 -2.392420 1.097893 17.815815 11.896820 3.460866 52.529371 23.106696 1.148366 4.476329 43.961724 9.909952 -0.000000 0.000000 -0.000000 -1.067822 19.175950 -8.837645 -2.462889 -32.592529 -6.607792 -0.000000 -0.000000 -0.000000 -6.301010 -44.683905 -6.915620 -9.973824 -1.325159 17.975880 
0.482397 -0.390960 -0.471962 179.794823 36.441423 -176.747688 -0.000000 -0.000000 0.000000 -3.225273 -3.303492 3.757393 1.584488 -1.594955 1.753956 0.000000 0.000000 0.000000 2.017990 -1.717054 2.399671 -2.149615 -26.950836 0.703913 0.865756 -1.125676 0.087836 -0.898890 -6.769878 -0.023826 -85.332091 -16.665825 0.930117 2.537796 -7.866859 6.182425 1.557803 -2.438559 1.439683 16.989409 11.201920 3.273901 53.183198 21.384666 2.771183 4.079747 44.155873 9.613292 -0.000000 0.000000 -0.000000 -1.151691 18.819915 -9.329049 -2.451898 -32.693173 -6.699921 -0.000000 -0.000000 -0.000000 -6.347857 -47.453874 -7.235928 -11.353195 -2.628017 18.016535 
0.622532 -0.388270 -0.571770 178.685409 37.401475 -176.794937 -0.000000 -0.000000 0.000000 -2.096488 -2.298691 3.835822 1.272297 -1.568808 2.376076 0.000000 0.000000 0.000000 1.786814 -1.684800 3.173944 -1.741778 -26.446033 0.410276 0.652095 -1.151728 0.542469 -1.122135 -6.114651 -0.104031 -84.893720 -16.812740 2.176590 3.416437 -8.982470 7.228916 1.171689 -2.422559 1.762031 16.566379 10.855194 3.283141 53.518872 19.144112 3.817789 4.230360 43.625709 9.706529 0.000000 0.000000 -0.000000 -1.269650 18.371838 -9.917393 -2.382775 -32.573608 -6.921741 -0.000000 -0.000000 -0.000000 -6.343821 -49.391364 -7.862866 -12.373112 -4.180416 18.147666 
0.764496 -0.381181 -0.660653 177.801472 37.309440 -176.878770 -0.000000 -0.000000 0.000000 -1.364616 -1.676903 3.912686 1.000203 -1.492547 2.805760 0.000000 0.000000 0.000000 1.530353 -1.637119 3.643145 -1.481635 -25.989650 0.094960 0.445652 -1.139086 0.840127 -1.199352 -5.589141 -0.128084 -84.245828 -17.276264 2.684492 3.859182 -10.063419 7.502135 0.824671 -2.392096 2.026680 16.190048 10.536871 3.245617 53.614120 17.042081 4.135960 4.637873 42.317743 9.748845 0.000000 0.000000 -0.000000 -1.406961 17.903229 -10.401638 -2.327958 -32.441127 -7.068457 -0.000000 -0.000000 -0.000000 -6.237943 -50.317830 -8.502802 -13.175947 -5.792949 18.312378 
0.903048 -0.372985 -0.745233 177.329966 35.999956 -176.945164 -0.000000 -0.000000 0.000000 -1.075089 -1.178561 3.962598 0.784782 -1.433494 3.091830 0.000000 0.000000 0.000000 1.300897 -1.599891 3.833675 -1.310290 -25.905701 -0.178330 0.280224 -1.130568 1.027279 -1.094087 -5.344564 -0.082867 -83.786125 -17.861508 2.873653 4.135416 -11.278443 7.453160 0.551346 -2.355861 2.193331 15.718300 10.227688 3.127147 53.645674 15.289548 3.768440 5.003575 41.357937 9.525351 0.000000 0.000000 -0.000000 -1.452632 17.567511 -10.608276 -2.312797 -32.327685 -7.098751 -0.000000 -0.000000 -0.000000 -6.178348 -50.244619 -8.892923 -13.674362 -7.235119 18.324267 
1.038060 -0.364151 -0.829404 177.169371 34.067041 -176.981668 -0.000000 -0.000000 0.000000 -1.169865 -0.943500 4.125528 0.620474 -1.426572 3.293998 0.000000 0.000000 0.000000 1.138818 -1.584622 3.928645 -1.083309 -25.993760 -0.447210 0.160287 -1.136812 1.158917 -0.852915 -5.287510 -0.022722 -83.614402 -18.382782 3.112334 4.349825 -12.408420 7.206878 0.347012 -2.344547 2.298096 15.178186 9.835530 3.186801 53.729676 14.141666 3.069706 4.917675 41.830117 8.718517 0.000000 0.000000 -0.000000 -1.422520 17.414270 -10.531058 -2.298955 -32.286381 -7.119555 -0.000000 0.000000 -0.000000 -6.194164 -49.489159 -9.022276 -13.812317 -8.309166 18.173825 
1.169654 -0.354533 -0.916838 177.147656 31.936806 -177.020618 -0.000000 -0.000000 0.000000 -1.458551 -0.901794 4.428571 0.489275 -1.471864 3.424092 0.000000 0.000000 0.000000 1.022427 -1.590208 4.001256 -0.850902 -26.128059 -0.651172 0.079845 -1.156971 1.261853 -0.546580 -5.318144 0.013996 -83.561739 -18.868556 3.604667 4.457145 -13.372582 6.732391 0.200749 -2.349995 2.383970 14.642404 9.471489 3.469608 53.729112 13.625168 1.932908 4.541216 43.731199 7.763185 0.000000 0.000000 -0.000000 -1.359107 17.361550 -10.291878 -2.278638 -32.354524 -7.199892 -0.000000 0.000000 -0.000000 -6.226343 -48.403877 -9.055471 -13.864827 -9.171335 18.011359 
1.298189 -0.344029 -1.009085 177.173551 29.937261 -177.057713 -0.000000 -0.000000 0.000000 -1.911216 -1.035771 4.720393 0.375999 -1.544650 3.526576 0.000000 0.000000 0.000000 0.935944 -1.612076 4.067685 -0.619836 -26.266083 -0.785203 0.020138 -1.194772 1.341152 -0.288724 -5.337583 0.044732 -83.513686 -19.373753 4.261357 4.569702 -14.321802 6.187274 0.096392 -2.373552 2.469474 14.161854 9.002880 3.641399 53.849247 13.428442 1.023305 4.471153 46.390237 7.223399 0.000000 0.000000 -0.000000 -1.297079 17.345701 -9.989133 -2.255145 -32.558934 -7.363949 -0.000000 0.000000 -0.000000 -6.256067 -47.330996 -9.067035 -13.969065 -9.932076 17.905668 
1.423602 -0.333584 -1.104743 177.212720 28.135924 -177.099064 -0.000000 -0.000000 0.000000 -2.283817 -1.292556 4.998979 0.277678 -1.631775 3.608418 0.000000 0.000000 0.000000 0.858883 -1.638733 4.125115 -0.438493 -26.349652 -0.822452 -0.031153 -1.244628 1.403072 -0.099744 -5.360029 0.091592 -83.358761 -19.806203 4.935507 4.698934 -15.347793 5.595263 0.019082 -2.409219 2.542107 13.738872 8.480394 3.696237 54.031231 13.441378 0.490345 4.584480 48.785192 7.027925 0.000000 0.000000 -0.000000 -1.245007 17.332807 -9.621257 -2.202446 -32.896497 -7.671459 -0.000000 0.000000 -0.000000 -6.273655 -46.285843 -9.069669 -14.007992 -10.517946 17.783166 
1.545249 -0.324802 -1.202846 177.260375 26.437800 -177.141645 -0.000000 -0.000000 0.000000 -2.519570 -1.595107 5.237438 0.191214 -1.723999 3.679103 0.000000 0.000000 0.000000 0.799997 -1.671878 4.185754 -0.296097 -26.439341 -0.796610 -0.075601 -1.304109 1.455780 0.053985 -5.363102 0.127497 -83.121190 -20.097997 5.556234 4.815056 -16.519869 4.964257 -0.043260 -2.455817 2.606585 13.419058 8.149247 3.693167 54.238776 13.604536 0.211087 4.672425 50.768984 6.983581 0.000000 0.000000 -0.000000 -1.183551 17.333556 -9.197166 -2.124311 -33.338160 -8.084285 -0.000000 0.000000 -0.000000 -6.265166 -45.363269 -9.062604 -14.003451 -10.930150 17.607399 
1.661513 -0.319098 -1.303932 177.319448 24.754005 -177.173874 0.000000 -0.000000 0.000000 -2.634905 -1.903313 5.396814 0.118706 -1.816360 3.747263 0.000000 0.000000 0.000000 0.755866 -1.706833 4.245817 -0.175652 -26.573068 -0.751614 -0.111192 -1.365271 1.500496 0.180834 -5.319061 0.144958 -82.867633 -20.287235 6.081773 4.910280 -17.869719 4.331515 -0.093437 -2.512834 2.662349 13.234861 8.065387 3.660420 54.507248 13.829132 0.345103 4.597018 52.454854 6.922678 0.000000 0.000000 -0.000000 -1.116114 17.353673 -8.727608 -2.005598 -33.847546 -8.596593 -0.000000 0.000000 -0.000000 -6.204322 -44.615191 -9.076497 -13.971470 -11.145196 17.434846 
1.770659 -0.317549 -1.408372 177.375545 23.247803 -177.195629 0.000000 -0.000000 0.000000 -2.646712 -2.208752 5.458244 0.063191 -1.901390 3.812380 0.000000 0.000000 0.000000 0.726656 -1.742700 4.306161 -0.075666 -26.773701 -0.677533 -0.136545 -1.422203 1.541182 0.264898 -5.238142 0.163411 -82.638752 -20.412133 6.513434 5.016485 -19.301979 3.818085 -0.123920 -2.572663 2.718300 13.192258 8.181516 3.591843 54.717452 14.229806 0.305309 4.371842 53.844769 6.807950 0.000000 0.000000 -0.000000 -1.042919 17.381053 -8.216609 -1.842693 -34.376948 -9.201686 0.000000 0.000000 -0.000000 -6.100838 -44.147785 -9.107462 -13.904021 -11.167007 17.271028 
1.871277 -0.321180 -1.516328 177.396318 22.133098 -177.228540 0.000000 -0.000000 0.000000 -2.566292 -2.515566 5.468435 0.036292 -1.971977 3.880901 0.000000 0.000000 0.000000 0.721621 -1.778350 4.373669 0.026542 -27.058382 -0.579175 -0.149593 -1.471246 1.581393 0.320271 -5.060259 0.144148 -82.534721 -20.427755 6.870271 5.009766 -20.449408 3.552977 -0.136176 -2.632294 2.781864 13.244002 8.472648 3.519661 54.890412 14.636171 0.300252 4.069452 55.069279 6.675190 0.000000 0.000000 -0.000000 -0.981459 17.392373 -7.723506 -1.643853 -34.888448 -9.866072 0.000000 0.000000 -0.000000 -5.975352 -44.091257 -9.154982 -13.860955 -11.043121 17.160775 
